<?xml version="1.0" standalone="no"?>
<!DOCTYPE svg PUBLIC "-//W3C//DTD SVG 20010904//EN"
 "http://www.w3.org/TR/2001/REC-SVG-20010904/DTD/svg10.dtd">
<svg version="1.0" xmlns="http://www.w3.org/2000/svg"
 width="243.000000pt" height="350.000000pt" viewBox="0 0 243.000000 350.000000"
 preserveAspectRatio="xMidYMid meet">

<g transform="translate(0.000000,350.000000) scale(0.100000,-0.100000)"
fill="#000000" stroke="none">
<path d="M720 3489 c0 -5 5 -7 10 -4 6 3 10 8 10 11 0 2 -4 4 -10 4 -5 0 -10
-5 -10 -11z"/>
<path d="M1552 3488 c2 -6 12 -16 21 -22 13 -8 20 -7 27 4 8 12 14 11 48 -7
l40 -21 11 25 c6 13 11 26 11 28 0 3 -36 5 -81 5 -57 0 -80 -3 -77 -12z"/>
<path d="M1742 3488 c3 -7 24 -14 49 -16 37 -3 50 -10 80 -43 38 -43 49 -48
49 -23 0 12 5 15 23 9 12 -4 35 -8 52 -9 28 -1 30 1 33 47 l4 47 -147 0 c-113
0 -146 -3 -143 -12z"/>
<path d="M2152 3480 c0 -14 2 -19 5 -12 2 6 2 18 0 25 -3 6 -5 1 -5 -13z"/>
<path d="M2311 3478 c0 -13 3 -17 6 -10 4 10 15 4 40 -20 23 -21 37 -29 40
-20 3 6 11 12 19 12 9 0 14 11 14 30 l0 30 -60 0 c-56 0 -60 -2 -59 -22z"/>
<path d="M670 3330 c-23 -7 -23 -8 -3 -9 12 -1 25 4 28 9 3 6 5 10 3 9 -2 -1
-14 -5 -28 -9z"/>
<path d="M810 3330 c-9 -6 -10 -10 -3 -10 6 0 15 5 18 10 8 12 4 12 -15 0z"/>
<path d="M831 3319 c-28 -23 -23 -24 14 -5 14 8 23 16 18 19 -4 3 -19 -3 -32
-14z"/>
<path d="M900 3329 c0 -5 -4 -7 -10 -4 -14 9 -12 -1 3 -13 10 -8 13 -6 14 9 1
10 0 19 -3 19 -2 0 -4 -5 -4 -11z"/>
<path d="M985 3330 c-14 -6 -6 -8 23 -6 28 2 48 -2 58 -11 8 -8 14 -10 14 -5
0 17 58 20 74 4 13 -13 16 -13 30 0 8 9 12 18 9 22 -3 3 -12 -2 -20 -12 -11
-12 -13 -13 -10 -2 4 12 -10 15 -77 16 -44 1 -90 -2 -101 -6z"/>
<path d="M1216 3323 c2 -6 -2 -14 -9 -17 -7 -2 -2 -5 11 -5 13 -1 20 3 17 9
-3 6 -1 10 4 10 6 0 11 -4 11 -10 0 -5 7 -10 16 -10 14 0 14 2 -1 16 -8 9 -22
14 -30 11 -7 -3 -16 -3 -18 1 -2 4 -2 2 -1 -5z"/>
<path d="M1720 3330 c-13 -8 -12 -10 3 -10 9 0 17 5 17 10 0 12 -1 12 -20 0z"/>
<path d="M775 3319 c-4 -6 -5 -12 -2 -15 2 -3 7 2 10 11 7 17 1 20 -8 4z"/>
<path d="M1354 3315 c8 -8 20 -15 27 -15 7 0 4 6 -7 15 -25 19 -40 19 -20 0z"/>
<path d="M1427 3313 c3 -7 6 -13 8 -13 2 0 5 6 8 13 3 8 -1 14 -8 14 -7 0 -11
-6 -8 -14z"/>
<path d="M1907 3319 c7 -7 15 -10 18 -7 3 3 -2 9 -12 12 -14 6 -15 5 -6 -5z"/>
<path d="M568 3313 c7 -3 16 -2 19 1 4 3 -2 6 -13 5 -11 0 -14 -3 -6 -6z"/>
<path d="M695 3310 c-3 -5 -1 -10 4 -10 6 0 11 5 11 10 0 6 -2 10 -4 10 -3 0
-8 -4 -11 -10z"/>
<path d="M930 3310 c0 -5 5 -10 11 -10 5 0 7 5 4 10 -3 6 -8 10 -11 10 -2 0
-4 -4 -4 -10z"/>
<path d="M1460 3310 c0 -5 5 -10 11 -10 5 0 7 5 4 10 -3 6 -8 10 -11 10 -2 0
-4 -4 -4 -10z"/>
<path d="M1495 3310 c-3 -5 -1 -10 4 -10 6 0 11 5 11 10 0 6 -2 10 -4 10 -3 0
-8 -4 -11 -10z"/>
<path d="M1660 3310 c0 -5 5 -10 11 -10 5 0 7 5 4 10 -3 6 -8 10 -11 10 -2 0
-4 -4 -4 -10z"/>
<path d="M1850 3310 c0 -5 5 -10 11 -10 5 0 7 5 4 10 -3 6 -8 10 -11 10 -2 0
-4 -4 -4 -10z"/>
<path d="M998 3303 c6 -2 18 -2 25 0 6 3 1 5 -13 5 -14 0 -19 -2 -12 -5z"/>
<path d="M1528 3303 c7 -3 16 -2 19 1 4 3 -2 6 -13 5 -11 0 -14 -3 -6 -6z"/>
<path d="M1588 3303 c7 -3 16 -2 19 1 4 3 -2 6 -13 5 -11 0 -14 -3 -6 -6z"/>
<path d="M1698 3303 c7 -3 16 -2 19 1 4 3 -2 6 -13 5 -11 0 -14 -3 -6 -6z"/>
<path d="M1738 3303 c7 -3 16 -2 19 1 4 3 -2 6 -13 5 -11 0 -14 -3 -6 -6z"/>
<path d="M1581 3283 c-1 -17 16 -25 25 -12 4 7 3 9 -4 5 -5 -3 -13 0 -15 6 -4
9 -6 10 -6 1z"/>
<path d="M1650 3280 c0 -5 5 -10 11 -10 5 0 7 5 4 10 -3 6 -8 10 -11 10 -2 0
-4 -4 -4 -10z"/>
<path d="M1691 3274 c0 -11 3 -14 6 -6 3 7 2 16 -1 19 -3 4 -6 -2 -5 -13z"/>
<path d="M1800 3280 c0 -5 5 -10 11 -10 5 0 7 5 4 10 -3 6 -8 10 -11 10 -2 0
-4 -4 -4 -10z"/>
<path d="M1910 3281 c0 -6 5 -13 10 -16 6 -3 10 1 10 9 0 9 -4 16 -10 16 -5 0
-10 -4 -10 -9z"/>
<path d="M610 3269 c0 -5 5 -7 10 -4 6 3 10 8 10 11 0 2 -4 4 -10 4 -5 0 -10
-5 -10 -11z"/>
<path d="M653 3273 c9 -2 17 -9 17 -14 0 -5 4 -9 10 -9 5 0 7 7 4 15 -4 8 -16
14 -28 14 -16 -1 -17 -2 -3 -6z"/>
<path d="M698 3273 c6 -2 18 -2 25 0 6 3 1 5 -13 5 -14 0 -19 -2 -12 -5z"/>
<path d="M753 3273 c9 -2 25 -2 35 0 9 3 1 5 -18 5 -19 0 -27 -2 -17 -5z"/>
<path d="M806 3264 c-6 -15 -4 -15 11 -3 10 7 20 15 22 16 2 2 -3 3 -11 3 -9
0 -19 -7 -22 -16z"/>
<path d="M858 3273 c7 -3 16 -2 19 1 4 3 -2 6 -13 5 -11 0 -14 -3 -6 -6z"/>
<path d="M896 3263 c-6 -14 -5 -15 5 -6 7 7 10 15 7 18 -3 3 -9 -2 -12 -12z"/>
<path d="M956 3264 c-5 -14 -4 -15 9 -4 17 14 19 20 6 20 -5 0 -12 -7 -15 -16z"/>
<path d="M998 3273 c6 -2 18 -2 25 0 6 3 1 5 -13 5 -14 0 -19 -2 -12 -5z"/>
<path d="M1108 3273 c7 -3 16 -2 19 1 4 3 -2 6 -13 5 -11 0 -14 -3 -6 -6z"/>
<path d="M1151 3267 c-1 -10 -5 -15 -11 -12 -5 3 -15 3 -21 -1 -8 -4 -7 -9 2
-15 12 -7 12 -9 0 -9 -8 0 -20 8 -28 18 -13 15 -13 15 -4 -4 6 -12 18 -24 27
-28 13 -5 14 -9 5 -20 -9 -10 -9 -16 -1 -21 8 -5 8 -11 -1 -21 -7 -9 -8 -14
-1 -14 18 0 25 20 12 35 -7 8 -7 15 -1 19 5 4 12 -3 16 -14 7 -22 20 -26 30
-10 4 6 2 9 -3 8 -6 -2 -9 2 -8 7 0 6 5 9 9 7 5 -1 6 2 2 7 -3 6 -12 8 -20 4
-8 -3 -15 -1 -16 3 0 5 -2 17 -4 26 -2 12 3 15 16 13 12 -2 23 4 31 18 10 19
9 20 -4 9 -13 -10 -17 -10 -21 0 -3 8 -6 6 -6 -5z"/>
<path d="M1200 3276 c0 -2 7 -6 15 -10 8 -3 15 -1 15 4 0 6 -7 10 -15 10 -8 0
-15 -2 -15 -4z"/>
<path d="M1251 3268 c-1 -23 25 -23 33 -2 5 14 4 15 -8 5 -11 -9 -15 -9 -19 1
-4 8 -6 7 -6 -4z"/>
<path d="M1296 3263 c-6 -14 -5 -15 5 -6 7 7 10 15 7 18 -3 3 -9 -2 -12 -12z"/>
<path d="M1343 3273 c9 -2 15 -9 12 -14 -4 -5 -1 -9 4 -9 6 0 11 5 11 11 0 5
6 7 13 3 6 -4 8 -3 4 1 -4 5 -20 10 -35 11 -15 1 -19 0 -9 -3z"/>
<path d="M1410 3273 c8 -3 18 -11 22 -17 5 -7 8 -4 8 7 0 11 -7 17 -22 16 -16
0 -18 -2 -8 -6z"/>
<path d="M1493 3267 c0 -8 6 -14 14 -14 9 0 10 4 2 14 -6 7 -12 13 -14 13 -1
0 -2 -6 -2 -13z"/>
<path d="M1619 3263 c-13 -16 -12 -17 4 -4 9 7 17 15 17 17 0 8 -8 3 -21 -13z"/>
<path d="M1830 3270 c0 -5 5 -10 11 -10 5 0 7 5 4 10 -3 6 -8 10 -11 10 -2 0
-4 -4 -4 -10z"/>
<path d="M1717 3259 c7 -7 15 -10 18 -7 3 3 -2 9 -12 12 -14 6 -15 5 -6 -5z"/>
<path d="M1775 3260 c-3 -5 -1 -10 4 -10 6 0 11 5 11 10 0 6 -2 10 -4 10 -3 0
-8 -4 -11 -10z"/>
<path d="M1893 3255 c0 -8 4 -12 9 -9 5 3 6 10 3 15 -9 13 -12 11 -12 -6z"/>
<path d="M1190 3245 c-7 -9 -19 -14 -27 -11 -24 10 -13 -9 13 -21 21 -10 24
-10 14 2 -7 8 -7 15 -1 19 5 3 11 0 14 -6 3 -7 4 -3 4 10 -1 26 -1 26 -17 7z"/>
<path d="M1258 3223 c7 -3 16 -2 19 1 4 3 -2 6 -13 5 -11 0 -14 -3 -6 -6z"/>
<path d="M1675 3207 c10 -15 20 -25 23 -22 3 3 -5 16 -17 28 l-23 22 17 -28z"/>
<path d="M1031 3203 c7 -12 15 -20 18 -17 3 2 -3 12 -13 22 -17 16 -18 16 -5
-5z"/>
<path d="M1067 3213 c-14 -13 -7 -61 9 -67 14 -5 15 -4 4 9 -7 8 -10 26 -8 40
6 27 5 29 -5 18z"/>
<path d="M1230 3202 c6 -13 14 -21 18 -18 3 4 -2 14 -12 24 -18 16 -18 16 -6
-6z"/>
<path d="M721 3194 c0 -11 3 -14 6 -6 3 7 2 16 -1 19 -3 4 -6 -2 -5 -13z"/>
<path d="M751 3194 c0 -11 3 -14 6 -6 3 7 2 16 -1 19 -3 4 -6 -2 -5 -13z"/>
<path d="M833 3195 c-3 -9 -3 -18 -1 -21 3 -3 8 4 11 16 6 23 -1 27 -10 5z"/>
<path d="M881 3198 c0 -9 -4 -25 -7 -35 -5 -17 -5 -17 6 0 6 10 9 25 7 35 -4
15 -5 15 -6 0z"/>
<path d="M912 3191 c7 -9 13 -18 15 -20 1 -2 1 5 0 16 0 11 -7 20 -14 20 -10
0 -10 -4 -1 -16z"/>
<path d="M1088 3198 c-7 -17 1 -38 14 -38 7 0 7 4 -1 13 -8 10 -7 17 1 25 8 8
9 12 1 12 -6 0 -13 -6 -15 -12z"/>
<path d="M1273 3203 c-7 -2 -12 -17 -12 -31 1 -21 2 -23 6 -7 3 11 10 26 15
33 11 13 10 13 -9 5z"/>
<path d="M1300 3186 c0 -14 4 -27 8 -30 5 -3 6 8 4 25 -5 35 -12 38 -12 5z"/>
<path d="M1370 3200 c0 -5 -8 -7 -17 -4 -14 5 -15 4 -4 -4 7 -5 17 -15 21 -22
5 -7 8 -2 8 14 0 14 -2 26 -4 26 -2 0 -4 -4 -4 -10z"/>
<path d="M1480 3191 c0 -11 4 -22 9 -25 4 -3 6 6 3 19 -5 30 -12 33 -12 6z"/>
<path d="M1750 3186 c0 -14 4 -27 8 -30 5 -3 6 8 4 25 -5 35 -12 38 -12 5z"/>
<path d="M1821 3198 c0 -9 -7 -18 -13 -21 -7 -2 -11 -7 -8 -10 11 -12 32 11
27 29 -4 15 -5 16 -6 2z"/>
<path d="M1854 3193 c10 -12 15 -27 11 -35 -7 -10 -5 -11 6 0 11 10 9 16 -11
35 -24 22 -24 22 -6 0z"/>
<path d="M990 3185 c0 -8 2 -15 4 -15 2 0 6 7 10 15 3 8 1 15 -4 15 -6 0 -10
-7 -10 -15z"/>
<path d="M1420 3195 c0 -5 5 -17 10 -25 5 -8 10 -10 10 -5 0 6 -5 17 -10 25
-5 8 -10 11 -10 5z"/>
<path d="M1561 3184 c0 -11 3 -14 6 -6 3 7 2 16 -1 19 -3 4 -6 -2 -5 -13z"/>
<path d="M1710 3175 c0 -14 2 -25 4 -25 2 0 6 11 8 25 3 14 1 25 -3 25 -5 0
-9 -11 -9 -25z"/>
<path d="M1530 3181 c0 -7 -5 -9 -12 -5 -7 5 -8 3 -3 -5 5 -9 10 -10 18 -2 6
6 8 14 4 18 -4 3 -7 1 -7 -6z"/>
<path d="M1020 3170 c0 -5 5 -10 11 -10 5 0 7 5 4 10 -3 6 -8 10 -11 10 -2 0
-4 -4 -4 -10z"/>
<path d="M1220 3165 c0 -8 4 -15 10 -15 5 0 7 7 4 15 -4 8 -8 15 -10 15 -2 0
-4 -7 -4 -15z"/>
<path d="M1340 3171 c0 -5 5 -13 10 -16 6 -3 10 -2 10 4 0 5 -4 13 -10 16 -5
3 -10 2 -10 -4z"/>
<path d="M1172 3150 c-12 -12 -22 -23 -22 -25 0 -10 40 20 44 32 7 18 3 16
-22 -7z"/>
<path d="M1606 3154 c-5 -14 -4 -15 9 -4 17 14 19 20 6 20 -5 0 -12 -7 -15
-16z"/>
<path d="M1401 2534 c0 -11 3 -14 6 -6 3 7 2 16 -1 19 -3 4 -6 -2 -5 -13z"/>
<path d="M1241 2504 c0 -11 3 -14 6 -6 3 7 2 16 -1 19 -3 4 -6 -2 -5 -13z"/>
<path d="M1281 2464 c0 -11 3 -14 6 -6 3 7 2 16 -1 19 -3 4 -6 -2 -5 -13z"/>
<path d="M1381 2464 c0 -11 3 -14 6 -6 3 7 2 16 -1 19 -3 4 -6 -2 -5 -13z"/>
<path d="M1214 2462 c4 -7 1 -12 -9 -12 -9 0 -13 -4 -10 -10 3 -5 13 -10 21
-10 17 0 19 26 2 36 -7 4 -8 3 -4 -4z"/>
<path d="M1320 2420 c-6 -11 -8 -20 -6 -20 3 0 10 9 16 20 6 11 8 20 6 20 -3
0 -10 -9 -16 -20z"/>
<path d="M1403 2419 c-2 -16 35 -39 61 -39 18 0 29 31 16 44 -7 7 -10 4 -11
-9 0 -11 -3 -14 -6 -7 -6 15 -33 16 -33 0 0 -6 -3 -8 -6 -5 -4 4 -2 12 4 20 8
10 7 13 -7 13 -9 0 -18 -8 -18 -17z"/>
<path d="M900 2402 c6 -13 14 -21 18 -18 3 4 -2 14 -12 24 -18 16 -18 16 -6
-6z"/>
<path d="M980 2400 c0 -5 10 -15 23 -21 22 -12 22 -12 3 10 -21 23 -26 26 -26
11z"/>
<path d="M1372 2395 c0 -11 3 -29 8 -40 11 -25 11 1 0 35 -6 20 -8 21 -8 5z"/>
<path d="M760 2379 c0 -5 5 -7 10 -4 6 3 10 8 10 11 0 2 -4 4 -10 4 -5 0 -10
-5 -10 -11z"/>
<path d="M1550 2382 c0 -16 32 -24 44 -11 8 9 8 10 -2 5 -7 -4 -19 -2 -27 4
-9 7 -15 8 -15 2z"/>
<path d="M890 2375 c0 -18 19 -40 26 -32 4 4 0 15 -9 24 -9 10 -17 13 -17 8z"/>
<path d="M1210 2350 c0 -5 5 -10 11 -10 5 0 7 5 4 10 -3 6 -8 10 -11 10 -2 0
-4 -4 -4 -10z"/>
<path d="M580 2330 c-18 -12 -2 -12 25 0 13 6 15 9 5 9 -8 0 -22 -4 -30 -9z"/>
<path d="M940 2331 c0 -10 19 -25 25 -20 1 2 -3 10 -11 17 -8 7 -14 8 -14 3z"/>
<path d="M1326 2328 c3 -5 10 -6 15 -3 13 9 11 12 -6 12 -8 0 -12 -4 -9 -9z"/>
<path d="M668 2318 c8 -8 18 -8 34 -1 21 9 20 10 -11 11 -25 0 -31 -2 -23 -10z"/>
<path d="M797 2323 c-4 -6 0 -16 8 -23 21 -17 28 -8 11 15 -8 11 -15 14 -19 8z"/>
<path d="M1535 2320 c3 -5 8 -10 11 -10 2 0 4 5 4 10 0 6 -5 10 -11 10 -5 0
-7 -4 -4 -10z"/>
<path d="M630 2311 c0 -5 -6 -11 -12 -14 -7 -2 -2 -2 10 0 17 3 21 0 16 -8 -4
-8 -3 -9 5 -5 9 6 9 11 0 22 -13 16 -19 18 -19 5z"/>
<path d="M1050 2316 c0 -2 7 -7 16 -10 8 -3 12 -2 9 4 -6 10 -25 14 -25 6z"/>
<path d="M1190 2304 c0 -8 5 -12 10 -9 6 4 8 11 5 16 -9 14 -15 11 -15 -7z"/>
<path d="M1301 2315 c0 -13 28 -50 33 -44 3 2 -4 15 -14 29 -11 14 -20 21 -19
15z"/>
<path d="M1666 2311 c-3 -4 3 -19 14 -31 17 -19 20 -20 20 -6 0 21 -26 50 -34
37z"/>
<path d="M980 2294 c0 -9 -5 -12 -12 -8 -7 3 0 -5 16 -20 16 -14 34 -26 39
-26 6 0 7 -3 4 -7 -4 -3 -2 -12 4 -20 8 -9 8 -13 1 -13 -6 0 -14 5 -17 10 -3
6 -12 10 -18 10 -7 0 -6 -4 3 -10 12 -8 12 -10 -5 -11 l-20 0 20 -8 c11 -5 28
-4 38 1 9 5 17 6 17 2 0 -3 6 -2 13 3 11 8 65 17 56 9 -2 -2 -40 -22 -83 -46
-59 -32 -86 -41 -107 -36 -16 3 -29 1 -29 -4 0 -5 10 -10 22 -12 12 -2 23 -9
26 -17 3 -9 0 -11 -8 -6 -7 4 -16 2 -22 -6 -8 -11 -9 -11 -5 2 4 13 -3 18 -33
23 -21 3 -40 12 -42 18 -6 17 -58 -6 -58 -24 0 -8 3 -9 8 -3 11 16 41 15 35
-1 -3 -8 -9 -12 -13 -9 -4 3 -13 -2 -20 -10 -7 -8 -21 -15 -31 -15 -11 0 -19
-4 -19 -8 0 -5 -43 -8 -95 -8 -52 1 -95 -2 -95 -6 0 -9 24 -11 103 -9 32 0 68
-4 80 -11 40 -22 71 -16 47 8 -6 6 -2 15 12 24 12 8 30 23 40 33 11 10 23 16
26 12 4 -4 -2 -13 -13 -20 -36 -26 -46 -37 -42 -48 6 -18 71 -48 115 -53 13
-2 31 -9 40 -16 12 -10 12 -7 -2 15 -15 22 -16 30 -6 42 10 11 9 18 -4 30 -20
21 -20 26 -1 18 9 -3 15 -2 14 3 -5 28 5 42 39 54 20 8 40 16 45 18 4 2 7 -14
8 -35 0 -48 25 -111 63 -158 24 -30 35 -36 58 -33 15 3 28 1 28 -4 0 -4 -5 -8
-11 -8 -5 0 -7 -5 -4 -10 5 -8 11 -8 19 -1 12 10 64 14 116 9 14 -1 48 -1 75
1 47 2 52 5 83 47 18 25 37 66 43 92 6 26 14 59 18 75 l6 27 45 -22 c57 -28
102 -69 126 -113 10 -19 22 -35 26 -35 22 0 -10 55 -66 113 -28 28 -57 61 -64
72 -11 18 -11 18 -1 -3 10 -22 9 -23 -11 -12 -14 7 -19 17 -16 27 7 17 -10 43
-28 43 -6 0 -4 -5 4 -11 12 -8 10 -10 -10 -5 l-25 5 24 -20 c28 -23 19 -25
-19 -3 l-27 17 20 23 c22 25 43 33 32 12 -4 -7 3 -2 14 12 18 22 26 21 22 -3
-1 -5 4 -5 10 -2 8 5 6 12 -4 22 -9 10 -20 12 -29 7 -7 -5 -19 -9 -27 -11 -8
-1 -17 -7 -21 -13 -5 -8 -9 -7 -13 4 -4 9 -2 15 2 13 9 -2 11 3 11 26 0 7 -3
8 -8 2 -4 -5 -18 -19 -32 -30 -19 -15 -21 -16 -11 -3 7 10 11 25 7 33 -6 17
-26 20 -26 4 0 -5 5 -7 10 -4 13 8 13 -1 0 -25 -8 -15 -6 -24 12 -42 17 -17
18 -20 4 -15 -10 4 -22 7 -27 7 -6 0 -8 3 -6 8 3 4 -9 7 -26 8 -18 1 -63 2
-102 4 -38 1 -104 0 -146 -3 -64 -5 -81 -3 -107 13 -30 19 -46 48 -19 35 6 -3
1 2 -12 12 -31 22 -51 25 -51 7z m44 -24 c8 -16 13 -30 11 -30 -10 0 -35 33
-35 46 0 22 7 17 24 -16z m481 -41 c10 -14 1 -21 -19 -13 -9 3 -13 10 -10 15
7 12 21 11 29 -2z m-435 -9 c0 -16 -17 -20 -28 -7 -8 10 -6 13 9 14 10 1 19
-2 19 -7z m247 -121 c-14 -8 -22 -8 -30 0 -8 8 -3 11 19 11 25 -1 27 -2 11
-11z m43 -34 c-8 -9 -9 -15 -2 -15 6 0 15 8 21 17 9 16 12 15 35 -12 33 -38
33 -43 -1 -38 -22 4 -25 2 -13 -6 13 -9 13 -11 -2 -11 -21 0 -24 -16 -5 -23 6
-3 -7 -6 -30 -6 -34 -1 -41 2 -37 14 4 8 14 15 24 15 17 0 36 28 25 38 -3 3
-5 0 -5 -6 0 -17 -16 -15 -34 4 -15 14 -14 17 6 34 26 21 37 18 18 -5z m-166
-20 c8 -8 22 -15 32 -15 16 0 16 -1 -1 -20 -23 -25 -36 -25 -58 0 -33 39 -9
71 27 35z m-319 -5 c-3 -5 -10 -10 -16 -10 -5 0 -9 5 -9 10 0 6 7 10 16 10 8
0 12 -4 9 -10z m378 -77 c-5 -13 -43 -19 -43 -6 0 3 8 15 17 25 18 20 36 7 26
-19z m48 -11 c-7 -2 -18 1 -23 6 -8 8 -4 9 13 5 13 -4 18 -8 10 -11z"/>
<path d="M1520 2306 c0 -2 8 -10 18 -17 15 -13 16 -12 3 4 -13 16 -21 21 -21
13z"/>
<path d="M1590 2295 c0 -9 6 -12 15 -9 8 4 15 10 15 15 0 5 -7 9 -15 9 -8 0
-15 -7 -15 -15z"/>
<path d="M707 2293 c-11 -10 3 -22 19 -16 8 3 22 -3 30 -13 10 -13 17 -15 20
-7 3 7 12 9 21 6 11 -4 14 -3 9 6 -4 7 -13 10 -19 8 -7 -2 -26 2 -43 9 -17 7
-34 11 -37 7z"/>
<path d="M1150 2290 c0 -5 -10 -10 -22 -10 -25 0 -16 -13 12 -17 11 -2 20 3
20 10 0 9 3 8 9 -2 5 -7 11 -9 14 -4 3 5 -3 14 -14 21 -11 7 -19 8 -19 2z"/>
<path d="M1360 2290 c0 -5 7 -10 15 -10 8 0 15 5 15 10 0 6 -7 10 -15 10 -8 0
-15 -4 -15 -10z"/>
<path d="M855 2280 c3 -5 11 -10 16 -10 6 0 7 5 4 10 -3 6 -11 10 -16 10 -6 0
-7 -4 -4 -10z"/>
<path d="M1290 2281 c0 -5 5 -13 10 -16 6 -3 10 -2 10 4 0 5 -4 13 -10 16 -5
3 -10 2 -10 -4z"/>
<path d="M665 2270 c-3 -5 1 -10 10 -10 9 0 13 5 10 10 -3 6 -8 10 -10 10 -2
0 -7 -4 -10 -10z"/>
<path d="M538 2263 c12 -2 30 -2 40 0 9 3 -1 5 -23 4 -22 0 -30 -2 -17 -4z"/>
<path d="M1358 2263 c7 -3 16 -2 19 1 4 3 -2 6 -13 5 -11 0 -14 -3 -6 -6z"/>
<path d="M1655 2243 c0 -18 6 -27 14 -25 8 2 11 -3 8 -13 -9 -22 1 -18 14 6 9
17 8 20 -2 14 -8 -6 -11 -4 -6 7 5 14 -9 38 -23 38 -3 0 -6 -12 -5 -27z"/>
<path d="M1720 2255 c7 -9 15 -13 17 -11 7 7 -7 26 -19 26 -6 0 -6 -6 2 -15z"/>
<path d="M690 2239 c0 -5 -12 -7 -27 -3 -16 4 -25 4 -21 -1 9 -10 78 -15 78
-5 0 4 -7 10 -15 14 -8 3 -15 1 -15 -5z"/>
<path d="M547 2224 c18 -10 36 -14 40 -11 10 10 0 16 -38 22 l-34 6 32 -17z"/>
<path d="M901 2221 c-11 -7 -11 -9 0 -14 12 -5 11 -7 -1 -16 -21 -15 -5 -25
19 -11 17 9 19 15 11 30 -12 23 -11 22 -29 11z"/>
<path d="M1605 2219 c-11 -17 1 -21 15 -4 8 9 8 15 2 15 -6 0 -14 -5 -17 -11z"/>
<path d="M1711 2214 c0 -11 3 -14 6 -6 3 7 2 16 -1 19 -3 4 -6 -2 -5 -13z"/>
<path d="M604 2212 c4 -3 23 -7 43 -9 19 -1 33 0 30 3 -3 3 -22 7 -42 9 -20 2
-34 0 -31 -3z"/>
<path d="M756 2208 c5 -8 2 -9 -9 -5 -10 4 -17 2 -17 -4 0 -6 8 -9 18 -7 11 3
19 0 19 -7 0 -9 -8 -10 -26 -5 -34 9 -101 -8 -80 -21 18 -11 42 -12 35 -1 -3
5 11 8 32 6 20 -1 36 -7 35 -13 -4 -14 14 -14 23 0 4 8 9 7 15 -2 6 -10 9 -11
9 -2 0 7 -9 18 -19 25 -10 6 -17 17 -14 23 2 7 -3 15 -12 19 -11 4 -14 2 -9
-6z"/>
<path d="M524 2195 c21 -16 32 -13 21 4 -3 6 -14 11 -23 11 -15 -1 -15 -2 2
-15z"/>
<path d="M570 2190 c0 -5 17 -10 38 -9 33 1 34 2 12 9 -36 11 -50 11 -50 0z"/>
<path d="M1720 2180 c0 -5 5 -10 11 -10 5 0 7 5 4 10 -3 6 -8 10 -11 10 -2 0
-4 -4 -4 -10z"/>
<path d="M965 2170 c-3 -5 -17 -10 -31 -10 -13 0 -24 -5 -24 -11 0 -7 8 -9 23
-4 12 3 28 7 35 7 6 1 12 7 12 15 0 15 -6 17 -15 3z"/>
<path d="M1640 2170 c13 -9 13 -10 0 -10 -8 -1 0 -7 19 -15 34 -15 56 -12 45
7 -3 5 -14 8 -24 5 -11 -3 -21 1 -24 9 -3 8 -11 14 -18 14 -9 0 -8 -3 2 -10z"/>
<path d="M596 2161 c-3 -5 1 -11 9 -14 9 -4 12 -1 8 9 -6 16 -10 17 -17 5z"/>
<path d="M484 2149 c-3 -5 2 -6 10 -3 10 4 16 1 16 -9 0 -8 10 -22 23 -30 l22
-16 -22 0 c-15 -1 -21 -6 -17 -16 6 -15 45 -13 97 7 28 11 36 32 15 44 -7 4
-8 3 -4 -4 4 -7 1 -12 -9 -12 -10 0 -13 -5 -9 -12 4 -7 3 -8 -5 -4 -9 6 -9 11
0 22 9 11 6 16 -16 24 -38 14 -45 11 -10 -5 35 -16 19 -20 -20 -5 -14 5 -24
13 -22 17 3 5 -6 9 -19 9 -13 1 -27 -2 -30 -7z"/>
<path d="M640 2139 c0 -5 5 -7 10 -4 6 3 10 8 10 11 0 2 -4 4 -10 4 -5 0 -10
-5 -10 -11z"/>
<path d="M672 2124 c-9 -7 -14 -16 -10 -20 4 -4 13 -2 20 3 7 6 27 15 43 21
l30 10 -33 -1 c-18 0 -40 -6 -50 -13z"/>
<path d="M1700 2120 c-13 -8 -12 -10 3 -10 9 0 17 5 17 10 0 12 -1 12 -20 0z"/>
<path d="M485 2100 c3 -5 8 -10 11 -10 2 0 4 5 4 10 0 6 -5 10 -11 10 -5 0 -7
-4 -4 -10z"/>
<path d="M1724 2074 c6 -15 4 -15 -11 -3 -16 12 -17 11 -3 -3 8 -9 26 -19 40
-22 21 -6 22 -5 8 4 -10 6 -18 16 -18 21 0 6 4 8 9 4 5 -3 12 -2 15 3 2 4 -7
9 -21 10 -20 1 -24 -2 -19 -14z"/>
<path d="M643 2063 c15 -2 37 -2 50 0 12 2 0 4 -28 4 -27 0 -38 -2 -22 -4z"/>
<path d="M1769 2016 c26 -9 31 -14 19 -19 -9 -3 -19 -1 -21 6 -2 7 -8 9 -12 4
-5 -4 -3 -13 3 -19 15 -15 16 -31 0 -22 -8 5 -9 2 -5 -9 3 -10 2 -17 -4 -17
-6 0 -7 -5 -3 -12 5 -8 2 -9 -9 -5 -9 3 -19 2 -22 -3 -3 -5 12 -13 35 -16 22
-4 40 -11 40 -16 0 -4 12 -13 27 -19 22 -8 24 -12 13 -19 -12 -8 -12 -10 3
-10 12 0 16 -5 11 -12 -5 -10 -4 -10 6 -1 11 10 10 17 -4 37 -9 14 -16 29 -16
34 0 13 70 1 70 -12 0 -6 5 -3 11 7 9 14 7 22 -8 32 -10 8 -14 15 -8 15 5 0
-1 7 -13 16 -13 9 -29 13 -37 10 -7 -2 -19 2 -25 10 -8 9 -9 14 -2 14 6 0 13
-6 15 -12 4 -10 6 -10 6 -1 1 7 7 11 14 9 6 -1 9 -1 5 1 -5 3 -8 11 -8 19 0 9
-4 12 -10 9 -5 -3 -10 0 -10 7 0 9 -3 9 -10 -2 -6 -10 -10 -11 -10 -2 0 7 -14
12 -37 11 l-38 -1 34 -12z m41 -51 c7 -9 8 -15 2 -15 -5 0 -12 7 -16 15 -3 8
-4 15 -2 15 2 0 9 -7 16 -15z"/>
<path d="M690 2010 c-12 -8 -11 -10 8 -10 12 0 22 5 22 10 0 13 -11 13 -30 0z"/>
<path d="M584 2000 c17 -6 36 -5 45 0 11 7 3 9 -29 9 -42 -1 -43 -1 -16 -9z"/>
<path d="M720 1979 c0 -5 5 -7 10 -4 6 3 10 8 10 11 0 2 -4 4 -10 4 -5 0 -10
-5 -10 -11z"/>
<path d="M825 1972 c3 -3 -2 -13 -10 -22 -15 -16 -14 -18 12 -23 25 -5 26 -4
9 9 -17 12 -16 13 12 9 36 -4 51 9 24 21 -20 9 -55 14 -47 6z"/>
<path d="M722 1945 c-28 -32 -16 -32 23 0 20 17 25 25 14 25 -8 0 -25 -11 -37
-25z"/>
<path d="M760 1935 c-7 -9 -8 -15 -2 -15 5 0 12 7 16 15 3 8 4 15 2 15 -2 0
-9 -7 -16 -15z"/>
<path d="M656 1931 c-17 -6 -17 -8 -3 -14 8 -3 21 1 27 9 13 15 6 17 -24 5z"/>
<path d="M1038 1913 c7 -3 16 -2 19 1 4 3 -2 6 -13 5 -11 0 -14 -3 -6 -6z"/>
<path d="M775 1890 c-3 -6 1 -7 9 -4 18 7 21 14 7 14 -6 0 -13 -4 -16 -10z"/>
<path d="M870 1885 c-7 -8 -8 -15 -2 -15 5 0 15 7 22 15 7 8 8 15 2 15 -5 0
-15 -7 -22 -15z"/>
<path d="M1120 1896 c0 -2 7 -7 16 -10 8 -3 12 -2 9 4 -6 10 -25 14 -25 6z"/>
<path d="M1602 1895 c7 -7 118 -9 125 -1 3 3 -24 6 -62 6 -38 0 -66 -2 -63 -5z"/>
<path d="M820 1883 c5 -2 8 -9 4 -14 -3 -5 0 -9 6 -9 15 0 7 23 -8 26 -7 1 -8
0 -2 -3z"/>
<path d="M954 1879 c-3 -5 9 -9 25 -9 17 0 31 2 31 4 0 8 -51 13 -56 5z"/>
<path d="M915 1870 c-3 -5 1 -10 10 -10 9 0 13 5 10 10 -3 6 -8 10 -10 10 -2
0 -7 -4 -10 -10z"/>
<path d="M1755 1870 c4 -6 11 -8 16 -5 14 9 11 15 -7 15 -8 0 -12 -5 -9 -10z"/>
<path d="M772 1855 c-7 -8 -8 -15 -3 -15 5 0 13 5 16 10 4 6 11 7 17 4 7 -4 8
-2 4 4 -9 16 -18 15 -34 -3z"/>
<path d="M1643 1863 c9 -2 23 -2 30 0 6 3 -1 5 -18 5 -16 0 -22 -2 -12 -5z"/>
<path d="M1708 1863 c7 -3 16 -2 19 1 4 3 -2 6 -13 5 -11 0 -14 -3 -6 -6z"/>
<path d="M1795 1852 c4 -8 0 -19 -11 -27 -17 -13 -17 -14 -3 -15 21 0 33 30
18 44 -9 8 -10 8 -4 -2z"/>
<path d="M836 1839 c8 -14 44 -16 55 -3 10 12 6 14 -24 12 -19 -2 -33 -6 -31
-9z"/>
<path d="M1058 1843 c7 -3 16 -2 19 1 4 3 -2 6 -13 5 -11 0 -14 -3 -6 -6z"/>
<path d="M1120 1806 c-37 -82 -19 -106 23 -31 19 34 22 45 11 45 -23 0 -16 18
9 23 l22 4 -22 2 c-17 1 -27 -9 -43 -43z"/>
<path d="M1480 1840 c0 -5 5 -10 10 -10 6 0 10 5 10 10 0 6 -4 10 -10 10 -5 0
-10 -4 -10 -10z"/>
<path d="M1535 1840 c3 -5 8 -10 11 -10 2 0 4 5 4 10 0 6 -5 10 -11 10 -5 0
-7 -4 -4 -10z"/>
<path d="M780 1831 c-8 -6 -19 -7 -25 -4 -5 4 -7 2 -2 -2 14 -15 44 -15 44 0
0 8 -1 15 -1 15 -1 0 -8 -4 -16 -9z"/>
<path d="M1207 1813 c14 -20 14 -23 0 -23 -8 0 -22 -17 -30 -37 -17 -44 -14
-55 9 -27 8 10 13 12 9 4 -4 -10 -2 -10 8 2 10 13 16 15 25 6 9 -9 12 -9 12 0
0 6 6 9 14 6 7 -3 16 2 19 10 5 12 0 16 -15 16 l-22 0 22 20 c25 24 28 32 8
24 -7 -3 -16 2 -19 10 -4 9 -16 15 -31 14 -22 -2 -23 -3 -9 -25z"/>
<path d="M1310 1813 c0 -14 1 -24 3 -22 1 2 8 11 15 20 10 14 10 18 -3 23 -11
4 -15 -1 -15 -21z"/>
<path d="M706 1819 c3 -5 10 -6 16 -3 7 5 9 1 5 -9 -3 -10 -2 -17 4 -17 18 0
5 33 -14 36 -9 1 -15 -2 -11 -7z"/>
<path d="M1038 1823 c-10 -2 -18 -9 -18 -14 0 -5 -10 -7 -23 -4 -15 4 -28 1
-36 -9 -11 -13 -11 -16 3 -16 10 0 14 -5 11 -10 -4 -6 12 -1 34 11 23 11 41
25 41 29 0 5 8 11 18 13 11 3 12 5 2 5 -8 0 -23 -2 -32 -5z"/>
<path d="M1865 1820 c-3 -5 -16 -10 -28 -11 -12 0 -17 -3 -10 -5 7 -3 10 -13
7 -22 -5 -15 -4 -15 6 1 6 9 18 17 25 17 8 0 15 7 15 15 0 17 -6 19 -15 5z"/>
<path d="M672 1806 c7 -8 15 -12 17 -11 5 6 -10 25 -20 25 -5 0 -4 -6 3 -14z"/>
<path d="M1363 1805 c0 -7 8 -10 19 -7 10 2 18 6 18 7 0 1 -8 5 -18 7 -11 3
-19 0 -19 -7z"/>
<path d="M1427 1813 c-4 -3 -7 -11 -7 -17 0 -6 5 -5 12 2 6 6 9 14 7 17 -3 3
-9 2 -12 -2z"/>
<path d="M812 1790 c0 -14 2 -19 5 -12 2 6 2 18 0 25 -3 6 -5 1 -5 -13z"/>
<path d="M865 1790 c-4 -6 -10 -8 -15 -5 -5 3 -12 0 -16 -6 -4 -7 -3 -9 3 -6
6 4 13 0 16 -7 3 -8 1 -16 -6 -19 -6 -2 -3 -6 7 -10 10 -4 15 -3 11 3 -3 6 -2
10 2 10 5 0 9 11 9 25 0 28 -2 30 -11 15z"/>
<path d="M1326 1761 c-14 -26 -14 -30 -1 -25 8 3 17 15 21 26 10 32 -3 32 -20
-1z"/>
<path d="M1790 1780 c0 -5 5 -10 10 -10 6 0 10 5 10 10 0 6 -4 10 -10 10 -5 0
-10 -4 -10 -10z"/>
<path d="M1866 1775 c-3 -8 -1 -15 4 -15 13 0 22 18 11 24 -5 3 -11 -1 -15 -9z"/>
<path d="M1767 1739 c7 -7 15 -10 18 -7 3 3 -2 9 -12 12 -14 6 -15 5 -6 -5z"/>
<path d="M1268 1723 c7 -3 16 -2 19 1 4 3 -2 6 -13 5 -11 0 -14 -3 -6 -6z"/>
<path d="M1185 1690 c-3 -6 1 -7 9 -4 18 7 21 14 7 14 -6 0 -13 -4 -16 -10z"/>
<path d="M2400 1645 c0 -8 -8 -15 -17 -15 -28 0 -101 -48 -83 -54 15 -5 117
-26 125 -26 3 0 5 25 5 55 0 42 -3 55 -15 55 -8 0 -15 -7 -15 -15z"/>
<path d="M1864 1631 c0 -11 5 -17 13 -14 10 4 11 9 2 19 -15 18 -15 18 -15 -5z"/>
<path d="M387 1594 c-3 -4 1 -13 9 -21 11 -11 27 -13 64 -8 51 7 69 18 49 31
-6 3 -14 2 -18 -4 -4 -7 -12 -8 -21 -2 -17 11 -73 13 -83 4z"/>
<path d="M210 1526 c0 -2 7 -9 15 -16 12 -10 15 -10 15 4 0 9 -7 16 -15 16 -8
0 -15 -2 -15 -4z"/>
<path d="M0 760 l0 -760 1215 0 1215 0 0 50 c0 38 -4 50 -15 50 -8 0 -15 6
-15 14 0 8 -6 17 -12 19 -7 3 -1 6 15 6 27 1 27 2 27 66 0 58 -2 65 -20 65
-10 0 -23 6 -27 13 -11 16 -63 39 -63 27 0 -5 -16 0 -36 12 -28 17 -38 18 -44
8 -6 -9 -17 -3 -44 23 -20 20 -36 41 -36 47 0 5 -19 10 -41 10 l-42 0 7 40 c3
22 3 52 0 65 -5 21 -12 25 -43 25 -20 0 -43 6 -50 13 -11 10 -12 9 -5 -3 9
-15 10 -30 13 -122 1 -35 5 -48 19 -51 12 -3 8 -8 -18 -20 -46 -20 -65 -22
-123 -12 -36 5 -47 11 -43 22 3 8 1 11 -4 8 -6 -4 -11 8 -11 27 l-2 33 -6 -35
c-4 -19 -3 -40 1 -46 6 -8 -2 -13 -25 -16 -22 -2 -34 1 -34 9 0 7 4 10 9 7 16
-10 13 75 -4 91 -7 7 -9 6 -5 -1 4 -7 4 -26 1 -43 -5 -24 -10 -29 -19 -21 -9
7 -15 7 -19 1 -4 -5 -2 -12 4 -16 18 -11 11 -25 -12 -25 -21 0 -23 5 -23 55 0
54 0 55 30 56 20 1 23 3 10 6 -45 10 -51 15 -30 24 19 8 19 9 1 6 -13 -1 -23
-14 -28 -35 -5 -19 -13 -30 -19 -26 -6 4 -7 9 -3 13 15 10 12 61 -4 61 -7 0
-10 -5 -7 -10 9 -14 -11 -12 -23 3 -5 6 -6 21 -2 32 4 11 3 31 -1 45 -8 23 -8
23 5 7 8 -10 17 -14 20 -9 3 6 -1 13 -10 16 -12 5 -14 10 -5 19 8 10 7 14 -4
14 -8 0 -12 -4 -10 -8 3 -4 -3 -10 -12 -13 -11 -5 -13 -10 -7 -14 8 -5 6 -18
-4 -42 -13 -31 -15 -33 -23 -15 -4 11 -8 14 -8 8 -2 -28 -21 -11 -21 18 0 17
-4 28 -10 24 -5 -3 -7 -12 -3 -20 3 -9 -1 -15 -8 -15 -11 0 -11 -3 1 -10 11
-7 7 -10 -17 -10 -18 0 -33 5 -33 11 0 8 -4 8 -14 0 -12 -10 -14 -7 -13 22 1
23 6 33 15 30 7 -3 12 4 13 18 l1 24 7 -25 c4 -14 13 -24 18 -23 62 13 73 12
83 -4 9 -14 10 -14 7 -2 -3 9 -1 22 3 29 6 10 -2 25 -26 48 -19 18 -34 37 -34
42 0 18 -15 10 -43 -23 -28 -32 -30 -33 -82 -26 -30 4 -59 10 -64 14 -19 11
-13 64 9 77 12 8 20 24 20 40 0 24 4 27 38 30 36 3 37 4 36 42 -1 23 2 33 7
25 4 -7 10 -11 12 -9 11 13 25 72 21 85 -7 18 12 20 20 3 5 -10 7 -10 12 0 3
7 25 12 55 12 43 0 51 3 61 25 9 21 9 29 -3 40 -19 19 -134 32 -143 16 -5 -8
12 -11 58 -11 58 0 66 -2 66 -19 0 -16 -9 -20 -57 -23 -47 -2 -57 0 -61 15 -7
29 -22 19 -22 -15 0 -52 -13 -23 -17 39 -2 32 -10 72 -18 88 -8 17 -13 45 -13
63 1 47 -25 72 -71 66 -20 -2 -44 -7 -53 -10 -10 -3 -18 -1 -18 5 0 5 -18 9
-39 8 -22 -1 -38 0 -36 4 3 3 -24 5 -59 5 -50 -1 -62 -4 -54 -13 7 -9 40 -13
95 -13 74 0 84 -2 79 -16 -3 -9 -6 -20 -6 -25 0 -5 -11 -9 -25 -9 l-25 0 0
-128 0 -129 -30 5 -30 4 0 123 c0 121 0 122 -22 121 -18 -1 -24 5 -26 27 -3
24 -12 32 -34 28 -4 0 -5 6 -1 15 4 12 0 15 -18 13 -13 -1 -35 3 -49 8 -27 11
-49 -5 -27 -19 8 -5 8 -8 1 -8 -6 0 -14 3 -18 7 -9 9 -36 13 -36 5 0 -4 -37
-7 -81 -8 -54 -1 -84 -5 -89 -14 -6 -10 -9 -9 -13 1 -3 9 -6 7 -6 -6 -1 -11
-5 -16 -9 -10 -8 12 -58 45 -67 45 -4 0 -4 -4 -1 -9 3 -5 -15 -4 -42 0 -26 5
-52 7 -59 5 -7 -3 -10 1 -7 9 3 7 -7 20 -23 30 -15 9 -39 40 -53 69 -14 28
-29 56 -35 62 -23 24 -104 53 -160 57 -33 3 -78 12 -99 21 -22 9 -66 16 -102
16 l-64 0 0 -760z m888 433 c-3 -14 -11 -17 -41 -15 l-37 4 0 -60 c0 -58 1
-59 25 -54 22 4 25 1 25 -22 0 -21 -5 -26 -25 -26 -18 0 -25 -5 -25 -20 0 -16
-7 -20 -30 -20 l-30 0 0 125 0 124 68 3 c69 3 77 -2 70 -39z m-519 -59 l-1
-95 -27 3 c-26 3 -26 4 -29 96 l-3 92 31 0 30 0 -1 -96z m151 -9 l0 -105 -25
0 c-25 0 -25 1 -25 83 0 45 -3 92 -6 105 -6 19 -3 22 25 22 l31 0 0 -105z
m170 73 c26 -30 27 -114 3 -141 -17 -18 -17 -19 0 -28 9 -6 17 -17 17 -25 0
-15 -3 -15 -62 3 -13 3 -38 5 -55 4 l-33 -3 0 113 0 112 55 -6 c42 -4 61 -12
75 -29z m361 3 c23 -28 25 -123 5 -160 -9 -16 -11 -35 -5 -60 4 -19 7 -36 6
-37 -1 -1 -14 0 -30 3 -18 4 -29 13 -33 29 -8 31 -24 31 -24 0 0 -19 -4 -22
-25 -18 -17 3 -25 11 -25 26 0 11 -2 72 -4 135 l-3 113 60 -4 c47 -4 64 -9 78
-27z m329 17 c0 -7 9 -80 20 -163 11 -82 20 -153 20 -156 0 -11 -53 -1 -60 11
-5 8 -23 9 -55 4 -47 -7 -48 -6 -42 17 3 13 13 86 23 162 l19 137 37 0 c24 0
38 -5 38 -12z m-1010 -273 l0 -55 34 0 c28 0 34 -4 38 -25 5 -25 4 -25 -63
-25 l-69 0 0 80 0 80 30 0 c30 0 30 -1 30 -55z m150 -35 c0 -68 -1 -70 -25
-70 -21 0 -25 5 -26 33 0 17 -1 49 -3 70 -3 35 -1 37 26 37 l28 0 0 -70z m81
50 c5 0 9 -16 9 -35 0 -29 4 -35 20 -35 20 0 43 36 33 53 -2 4 7 7 22 7 32 0
41 -21 25 -59 -14 -35 -47 -51 -105 -51 l-45 0 0 66 c0 56 2 65 16 60 9 -3 20
-6 25 -6z m187 -27 c17 -4 22 -11 19 -24 -4 -16 1 -19 39 -19 40 0 44 -2 44
-25 0 -24 -2 -25 -70 -25 l-70 0 2 50 c1 28 5 50 8 50 3 0 15 -3 28 -7z m182
-58 c0 -32 -3 -35 -28 -35 -23 0 -28 5 -30 26 -3 35 4 44 34 44 21 0 24 -5 24
-35z m96 12 c1 -1 5 -12 8 -24 7 -20 4 -23 -22 -23 -29 0 -42 14 -42 47 0 12
6 14 27 8 16 -4 29 -7 29 -8z m112 -13 c30 -8 28 -30 -3 -36 -29 -6 -35 -2
-35 24 0 20 4 21 38 12z m127 -24 c3 -5 -3 -10 -14 -10 -12 0 -24 0 -28 -1 -4
0 -9 4 -11 10 -5 14 45 15 53 1z m45 -60 c0 -5 -2 -10 -4 -10 -3 0 -8 5 -11
10 -3 6 -1 10 4 10 6 0 11 -4 11 -10z m-90 -182 c0 -4 5 -8 11 -8 5 0 8 4 5 8
-3 5 1 9 9 9 10 0 11 -5 5 -18 -9 -16 -12 -16 -40 -3 -35 18 -36 20 -10 20 11
0 20 -4 20 -8z m134 0 c-3 -4 -9 -8 -15 -8 -5 0 -9 4 -9 8 0 5 7 9 15 9 8 0
12 -4 9 -9z m111 -6 c-3 -3 -11 0 -18 7 -9 10 -8 11 6 5 10 -3 15 -9 12 -12z
m-300 -2 c3 -6 -1 -7 -9 -4 -18 7 -21 14 -7 14 6 0 13 -4 16 -10z m-735 -42
l9 -23 0 23 c1 29 21 19 21 -11 0 -24 15 -13 23 18 3 12 5 8 4 -10 -2 -25 -6
-30 -30 -31 -15 -1 -30 3 -34 9 -3 5 -9 4 -14 -4 -14 -23 -20 -3 -8 25 15 32
17 32 29 4z m90 5 c0 -15 1 -15 14 2 16 23 46 14 46 -15 0 -25 -25 -37 -45
-20 -10 9 -15 9 -15 1 0 -6 -4 -11 -10 -11 -5 0 -10 14 -10 30 0 17 5 30 10
30 6 0 10 -8 10 -17z m105 6 c4 -6 4 -13 0 -17 -3 -3 -10 0 -15 8 -6 8 -10 10
-10 4 0 -6 7 -17 15 -24 12 -10 17 -7 26 16 l11 29 15 -28 c15 -29 9 -53 -6
-28 -6 9 -11 10 -15 2 -4 -6 -18 -10 -31 -9 -20 2 -25 8 -25 30 0 28 22 39 35
17z m106 -11 l2 -23 4 23 c2 12 10 22 17 22 16 0 17 -32 2 -42 -6 -4 1 -7 16
-6 20 2 24 5 17 15 -12 13 -4 33 13 33 5 0 8 -7 5 -15 -4 -8 -2 -17 4 -20 21
-14 -5 -25 -57 -24 -53 2 -54 2 -54 30 0 35 29 41 31 7z m111 -8 c-5 -36 -7
-35 -16 3 -4 19 -3 27 7 27 9 0 12 -9 9 -30z m128 5 c0 -14 5 -25 10 -25 6 0
10 12 10 26 0 14 4 23 10 19 5 -3 6 -13 3 -21 -3 -9 0 -20 8 -25 9 -6 -11 -9
-56 -8 -81 1 -105 6 -105 22 0 8 3 8 12 -1 17 -17 33 -15 18 3 -18 22 -5 32
45 33 41 1 45 -1 45 -23z m83 18 c-7 -2 -13 -9 -13 -14 0 -6 5 -7 10 -4 6 3
10 2 10 -4 0 -5 -6 -12 -12 -14 -8 -3 -6 -6 5 -6 12 -1 17 7 17 25 0 19 4 25
18 22 11 -2 17 -13 17 -29 1 -23 -3 -26 -37 -27 -36 -2 -38 0 -38 28 0 22 5
30 18 29 10 0 12 -3 5 -6z m115 -5 c9 -9 12 -9 12 0 0 17 35 15 50 -3 10 -12
10 -18 0 -30 -15 -17 -50 -20 -50 -4 0 8 -5 8 -15 -1 -23 -19 -43 -6 -38 24 6
28 22 33 41 14z m142 -5 c1 -17 1 -17 11 0 10 18 59 24 59 8 0 -5 -7 -16 -15
-24 -11 -12 -12 -17 -2 -20 7 -3 5 -6 -5 -6 -10 -1 -19 7 -19 17 -1 15 -2 14
-6 -2 -4 -15 -7 -16 -14 -5 -8 12 -11 12 -19 -1 -7 -12 -10 -8 -10 15 l-1 30
-13 -30 -13 -30 -5 33 c-4 30 -2 32 24 32 20 0 28 -5 28 -17z m720 -43 c0 -5
-4 -10 -10 -10 -5 0 -10 5 -10 10 0 6 5 10 10 10 6 0 10 -4 10 -10z m-1360
-86 c0 -11 -6 -14 -20 -9 -17 5 -20 2 -20 -27 0 -19 5 -39 12 -46 9 -9 4 -12
-22 -12 -26 0 -31 3 -22 12 7 7 12 27 12 46 0 29 -3 34 -20 29 -13 -3 -20 0
-20 9 0 10 14 14 50 14 39 0 50 -4 50 -16z m89 -71 c1 -7 8 -13 17 -13 14 0
16 9 12 50 -4 44 -3 50 13 50 14 0 19 -7 19 -26 0 -19 4 -25 18 -22 11 2 16
11 14 26 -2 15 2 22 12 22 12 0 16 -11 16 -50 0 -40 3 -50 16 -50 14 0 16 9
12 50 l-5 50 38 0 c27 0 39 -4 39 -14 0 -9 -7 -12 -20 -9 -14 4 -20 0 -20 -11
0 -10 6 -13 15 -10 9 4 15 0 15 -10 0 -10 -6 -13 -15 -10 -10 4 -15 0 -15 -15
0 -22 14 -28 25 -11 9 15 25 12 25 -5 0 -12 -15 -15 -75 -15 l-75 0 10 25 c8
22 7 25 -11 25 -17 0 -20 -5 -17 -25 5 -24 3 -25 -42 -25 -40 0 -49 3 -53 21
-3 12 -10 18 -17 14 -6 -4 -9 -13 -6 -21 4 -9 -2 -14 -15 -14 -16 0 -18 4 -10
18 5 9 17 35 26 57 l17 40 18 -40 c10 -22 19 -46 19 -52z m310 78 c9 -6 12
-18 7 -36 -5 -19 -2 -33 10 -46 16 -18 16 -19 -4 -19 -12 0 -23 8 -27 20 -3
11 -11 20 -16 20 -13 0 -11 -14 3 -28 9 -9 7 -12 -12 -12 -24 0 -25 3 -23 52
1 29 2 54 2 56 2 6 47 1 60 -7z m121 -5 c0 -9 -7 -12 -20 -9 -14 4 -20 0 -20
-11 0 -10 6 -13 15 -10 9 4 15 0 15 -10 0 -10 -6 -13 -15 -10 -10 4 -15 0 -15
-15 0 -23 25 -29 33 -8 2 6 8 9 12 5 15 -14 -7 -28 -43 -28 l-37 0 0 55 0 55
38 0 c25 0 37 -4 37 -14z m60 -11 c0 -16 6 -25 16 -25 10 0 14 7 12 23 -2 16
3 23 17 25 18 2 20 -3 20 -53 0 -46 -3 -55 -17 -55 -13 0 -18 8 -18 25 0 16
-6 25 -16 25 -12 0 -15 -7 -12 -25 4 -20 1 -25 -16 -25 -19 0 -21 6 -21 55 0
46 3 55 18 55 11 0 17 -8 17 -25z m180 -12 l14 -38 15 37 c9 22 23 38 32 38
13 0 15 -9 11 -51 -6 -66 13 -63 46 5 20 42 42 54 42 23 0 -7 9 -29 19 -50
l19 -37 -24 0 c-15 0 -24 6 -24 15 0 8 -7 15 -16 15 -10 0 -14 -6 -10 -15 4
-12 -4 -15 -43 -15 -47 0 -48 1 -45 28 l4 27 -12 -27 c-16 -37 -22 -35 -41 10
-13 33 -15 34 -16 12 -1 -15 4 -31 11 -38 9 -9 6 -12 -16 -12 -24 0 -27 2 -16
15 8 9 11 30 7 55 -4 33 -2 40 12 40 11 0 22 -14 31 -37z m370 -93 c0 -5 -5
-10 -11 -10 -5 0 -7 5 -4 10 3 6 8 10 11 10 2 0 4 -4 4 -10z m-497 -128 c9 -4
-32 -6 -92 -4 -60 2 -132 -1 -161 -7 -29 -6 -55 -9 -57 -7 -19 18 267 34 310
18z m-146 -59 c2 -6 -1 -15 -8 -19 -8 -5 -10 -3 -4 7 7 11 6 12 -6 3 -15 -12
-165 -11 -177 0 -14 15 21 22 105 22 56 -1 88 -5 90 -13z m88 -2 c9 -23 -6
-27 -22 -6 -13 16 -15 17 -10 3 4 -10 2 -18 -3 -18 -5 0 -14 8 -20 18 -11 16
-11 16 -6 0 3 -10 1 -18 -4 -18 -6 0 -10 8 -10 18 0 15 7 19 35 18 20 -1 37
-7 40 -15z m36 0 c17 27 118 17 119 -12 0 -12 -74 -8 -82 4 -6 9 -8 8 -8 -3 0
-13 -1 -13 -10 0 -6 10 -10 11 -10 3 0 -7 -7 -13 -15 -13 -9 0 -15 9 -14 23 1
19 2 19 6 3 4 -15 7 -16 14 -5z m1079 -61 c0 -5 -4 -10 -10 -10 -5 0 -10 5
-10 10 0 6 5 10 10 10 6 0 10 -4 10 -10z"/>
<path d="M610 1126 c0 -60 10 -75 34 -50 23 22 21 81 -3 94 -30 15 -31 14 -31
-44z"/>
<path d="M970 1119 c0 -52 2 -60 18 -57 22 4 31 96 10 109 -24 16 -28 9 -28
-52z"/>
<path d="M1328 1060 c-6 -81 -4 -92 16 -84 9 3 11 21 8 62 -8 94 -18 104 -24
22z"/>
<path d="M582 549 c2 -6 8 -10 13 -10 5 0 11 4 13 10 2 6 -4 11 -13 11 -9 0
-15 -5 -13 -11z"/>
<path d="M930 560 c0 -5 5 -10 10 -10 6 0 10 5 10 10 0 6 -4 10 -10 10 -5 0
-10 -4 -10 -10z"/>
<path d="M973 550 c1 -11 5 -20 9 -20 4 0 8 9 8 20 0 11 -4 20 -9 20 -6 0 -9
-9 -8 -20z"/>
<path d="M1180 544 c0 -8 5 -12 10 -9 6 3 10 10 10 16 0 5 -4 9 -10 9 -5 0
-10 -7 -10 -16z"/>
<path d="M1232 549 c2 -6 8 -10 13 -10 5 0 11 4 13 10 2 6 -4 11 -13 11 -9 0
-15 -5 -13 -11z"/>
<path d="M1070 415 c0 -9 5 -15 11 -13 6 2 11 8 11 13 0 5 -5 11 -11 13 -6 2
-11 -4 -11 -13z"/>
<path d="M1875 1050 c-3 -6 5 -10 18 -10 33 0 37 -14 37 -126 0 -56 4 -94 10
-94 6 0 10 41 10 103 0 90 -2 105 -20 120 -23 19 -46 22 -55 7z"/>
<path d="M2000 1050 c0 -6 26 -10 58 -10 40 0 53 3 42 10 -20 13 -100 13 -100
0z"/>
<path d="M1738 1043 c7 -3 16 -2 19 1 4 3 -2 6 -13 5 -11 0 -14 -3 -6 -6z"/>
<path d="M1774 1014 c4 -11 12 -48 18 -84 15 -97 19 -101 34 -30 16 82 16 119
-1 60 -11 -40 -13 -42 -18 -20 -4 14 -8 38 -9 54 -2 16 -9 32 -17 34 -10 3
-12 0 -7 -14z"/>
<path d="M2134 1013 c1 -14 -8 -19 -45 -21 l-46 -3 0 -50 0 -50 36 3 c34 3 36
1 36 -26 0 -27 -3 -30 -35 -30 -24 -1 -35 -6 -35 -16 0 -9 8 -14 20 -13 11 1
23 -4 28 -10 5 -8 15 -3 32 16 17 19 25 23 25 13 0 -9 -4 -16 -10 -16 -5 0
-10 -7 -10 -15 0 -18 16 -20 23 -2 4 10 6 10 6 0 1 -7 10 -13 21 -13 10 0 23
-7 28 -16 11 -21 92 -30 121 -15 23 13 28 31 8 31 -16 0 -70 55 -65 66 1 5 -5
10 -14 12 -10 2 -18 -1 -18 -7 0 -14 -43 -14 -75 1 -16 7 -25 19 -25 34 0 18
-7 24 -35 30 -28 5 -35 11 -35 30 0 20 4 23 36 22 37 -1 54 12 54 45 0 9 -6
17 -14 17 -8 0 -13 -8 -12 -17z"/>
<path d="M1681 991 c-1 -27 2 -32 11 -23 8 8 8 17 0 34 -10 22 -11 21 -11 -11z"/>
<path d="M1970 920 c0 -60 4 -100 10 -100 6 0 10 40 10 100 0 60 -4 100 -10
100 -6 0 -10 -40 -10 -100z"/>
<path d="M2010 961 c0 -11 4 -22 9 -25 4 -3 6 6 3 19 -5 30 -12 33 -12 6z"/>
<path d="M2087 939 c7 -7 15 -10 18 -7 3 3 -2 9 -12 12 -14 6 -15 5 -6 -5z"/>
<path d="M1683 895 c0 -27 2 -38 4 -22 2 15 2 37 0 50 -2 12 -4 0 -4 -28z"/>
<path d="M1866 892 c-4 -29 -5 -56 -2 -59 12 -13 17 6 14 58 l-3 54 -9 -53z"/>
<path d="M1752 865 c0 -16 2 -22 5 -12 2 9 2 23 0 30 -3 6 -5 -1 -5 -18z"/>
<path d="M2011 874 c0 -11 3 -14 6 -6 3 7 2 16 -1 19 -3 4 -6 -2 -5 -13z"/>
<path d="M1683 735 c0 -33 2 -45 4 -27 2 18 2 45 0 60 -2 15 -4 0 -4 -33z"/>
<path d="M1750 756 c0 -13 -6 -27 -12 -29 -10 -4 -10 -6 0 -6 7 -1 12 -14 12
-31 0 -16 4 -30 9 -30 5 0 7 10 4 23 -4 21 -4 21 12 -3 15 -25 16 -24 10 20
-9 61 -15 80 -26 80 -5 0 -9 -11 -9 -24z"/>
<path d="M1847 763 c-2 -5 -8 -26 -12 -48 -4 -22 -12 -43 -18 -47 -8 -5 -7 -8
3 -8 8 0 29 9 45 20 17 11 24 20 18 20 -8 0 -13 14 -13 35 0 32 -12 46 -23 28z"/>
<path d="M1930 711 c0 -36 -3 -40 -27 -44 -23 -3 -22 -4 8 -6 40 -1 51 15 42
63 -8 40 -23 31 -23 -13z"/>
<path d="M1972 700 c1 -40 2 -40 40 -40 22 0 48 -5 59 -11 14 -7 29 -7 50 0
25 8 29 7 30 -7 0 -14 2 -14 6 -2 4 8 14 21 25 28 24 17 23 32 -2 32 -11 0
-19 3 -17 8 4 13 -17 10 -38 -5 -16 -12 -16 -14 -2 -10 11 4 17 1 17 -8 0 -12
-16 -15 -75 -15 l-75 0 0 35 c0 19 -4 35 -10 35 -5 0 -9 -18 -8 -40z"/>
<path d="M2048 733 c6 -2 18 -2 25 0 6 3 1 5 -13 5 -14 0 -19 -2 -12 -5z"/>
<path d="M2098 733 c7 -3 16 -2 19 1 4 3 -2 6 -13 5 -11 0 -14 -3 -6 -6z"/>
<path d="M1708 663 c6 -2 18 -2 25 0 6 3 1 5 -13 5 -14 0 -19 -2 -12 -5z"/>
<path d="M1690 606 c7 -7 13 -7 20 0 6 6 3 10 -10 10 -13 0 -16 -4 -10 -10z"/>
<path d="M1902 590 c-13 -11 -18 -21 -12 -25 5 -3 10 -1 10 5 0 7 6 10 13 7 8
-3 20 -1 28 3 8 5 16 5 19 -1 4 -5 14 -3 26 6 18 13 17 14 -16 10 -19 -2 -37
0 -40 5 -3 4 -15 0 -28 -10z"/>
<path d="M1631 596 c2 -2 18 -6 34 -10 22 -5 26 -4 15 4 -14 9 -59 15 -49 6z"/>
<path d="M1710 585 c-7 -9 -11 -17 -9 -20 3 -2 10 5 17 15 14 24 10 26 -8 5z"/>
<path d="M1805 589 c-17 -7 -17 -8 8 -8 15 -1 30 -1 34 -2 4 0 8 4 9 11 2 7 1
7 -3 0 -3 -7 -9 -7 -16 -2 -7 5 -21 6 -32 1z"/>
<path d="M1461 564 c0 -11 3 -14 6 -6 3 7 2 16 -1 19 -3 4 -6 -2 -5 -13z"/>
<path d="M1541 564 c0 -11 3 -14 6 -6 3 7 2 16 -1 19 -3 4 -6 -2 -5 -13z"/>
<path d="M1664 556 c-8 -22 3 -33 18 -18 9 9 9 15 0 24 -9 9 -13 7 -18 -6z"/>
<path d="M1797 548 c3 -17 2 -19 -5 -9 -11 15 -32 7 -31 -12 0 -9 2 -8 6 1 2
6 9 9 14 6 6 -3 5 -12 -3 -22 -12 -15 -11 -16 5 -3 16 13 20 13 28 0 8 -12 10
-12 19 1 5 8 9 24 8 35 -1 17 -1 17 -5 -2 -6 -31 -23 -29 -23 2 0 14 -4 25 -9
25 -5 0 -7 -10 -4 -22z"/>
<path d="M1637 553 c-4 -3 -7 -14 -7 -24 0 -9 -4 -19 -10 -21 -5 -1 17 -3 50
-3 33 0 60 3 60 8 0 4 -18 7 -40 7 -37 0 -45 7 -41 33 1 9 -4 9 -12 0z"/>
<path d="M1946 554 c7 -3 10 -14 7 -25 -4 -14 -11 -18 -27 -14 -19 6 -20 5 -4
-8 10 -8 15 -17 11 -21 -4 -4 0 -4 10 0 9 3 15 10 12 14 -3 5 4 6 15 3 11 -3
20 0 20 6 0 6 -7 11 -15 11 -8 0 -15 5 -15 11 0 5 6 7 13 3 8 -5 8 -2 -2 9 -7
9 -19 17 -25 16 -8 0 -8 -2 0 -5z"/>
<path d="M1880 535 c8 -10 9 -15 1 -15 -6 0 -11 -4 -11 -10 0 -5 7 -7 15 -4
20 8 19 30 -1 38 -14 5 -15 4 -4 -9z"/>
<path d="M1845 509 c-4 -6 -5 -12 -2 -15 2 -3 7 2 10 11 7 17 1 20 -8 4z"/>
<path d="M1790 460 c-9 -6 -10 -10 -3 -10 6 0 15 5 18 10 8 12 4 12 -15 0z"/>
<path d="M1918 463 c7 -3 16 -2 19 1 4 3 -2 6 -13 5 -11 0 -14 -3 -6 -6z"/>
<path d="M1720 414 c0 -8 5 -12 10 -9 6 3 10 10 10 16 0 5 -4 9 -10 9 -5 0
-10 -7 -10 -16z"/>
</g>
</svg>
